<svg width="38" height="25" viewBox="0 0 38 25" fill="none" xmlns="http://www.w3.org/2000/svg">
<path opacity="0.07" d="M35 0.520508H3C1.3 0.520508 0 1.82051 0 3.52051V21.5205C0 23.2205 1.4 24.5205 3 24.5205H35C36.7 24.5205 38 23.2205 38 21.5205V3.52051C38 1.82051 36.6 0.520508 35 0.520508Z" fill="black"/>
<path d="M35 1.52051C36.1 1.52051 37 2.42051 37 3.52051V21.5205C37 22.6205 36.1 23.5205 35 23.5205H3C1.9 23.5205 1 22.6205 1 21.5205V3.52051C1 2.42051 1.9 1.52051 3 1.52051H35Z" fill="#006FCF"/>
<path d="M22.0117 20.4562V12.0352L36.9997 12.0482V14.3742L35.2677 16.2262L36.9997 18.0932V20.4682H34.2337L32.7637 18.8462L31.3037 20.4742L22.0117 20.4542V20.4562Z" fill="white"/>
<path d="M23.0127 19.5329V12.9629H28.5847V14.4759H24.8167V15.5039H28.4947V16.9919H24.8167V18.0019H28.5847V19.5329H23.0127Z" fill="#006FCF"/>
<path d="M28.5566 19.5329L31.6396 16.2439L28.5566 12.9619H30.9426L32.8266 15.0449L34.7166 12.9629H36.9996V13.0139L33.9826 16.2439L36.9996 19.4409V19.5339H34.6926L32.7756 17.4309L30.8776 19.5349H28.5566V19.5329Z" fill="#006FCF"/>
<path d="M22.71 4.56055H26.324L27.593 7.44155V4.56055H32.053L32.823 6.71955L33.594 4.56055H37V12.9815H19L22.71 4.56055Z" fill="white"/>
<path d="M23.3945 5.47559L20.4785 12.0416H22.4785L23.0285 10.7266H26.0085L26.5585 12.0416H28.6085L25.7045 5.47559H23.3945ZM23.6445 9.25259L24.5195 7.16259L25.3925 9.25259H23.6445Z" fill="#006FCF"/>
<path d="M28.581 12.0406V5.47363L31.392 5.48363L32.84 9.52063L34.296 5.47463H37V12.0396L35.26 12.0556V7.54563L33.616 12.0396H32.026L30.35 7.53063V12.0406H28.582H28.581Z" fill="#006FCF"/>
</svg>
