<svg width="12" height="23" viewBox="0 0 12 23" fill="none" xmlns="http://www.w3.org/2000/svg">
<path fill-rule="evenodd" clip-rule="evenodd" d="M3.45548 22.6617V12.6852H0.0996094V8.79716H3.45548V5.93516C3.38801 5.25578 3.46964 4.56986 3.69466 3.92529C3.91969 3.28071 4.28269 2.69302 4.75833 2.20325C5.23396 1.71347 5.81077 1.33341 6.44848 1.0896C7.08618 0.845796 7.76942 0.744117 8.45048 0.791665C9.45295 0.78575 10.4549 0.839847 11.4509 0.953665V4.42316H9.39211C9.13071 4.36772 8.85965 4.37779 8.60309 4.4525C8.34653 4.5272 8.11243 4.6642 7.92165 4.85131C7.73087 5.03841 7.58933 5.2698 7.50966 5.52486C7.42998 5.77992 7.41463 6.05073 7.46498 6.31316V8.79716H11.3159L10.813 12.6852H7.47173V22.6617H3.45548Z" fill="white"/>
</svg>
