<svg width="38" height="25" viewBox="0 0 38 25" fill="none" xmlns="http://www.w3.org/2000/svg">
<path opacity="0.07" d="M35 0.520508H3C1.3 0.520508 0 1.82051 0 3.52051V21.5205C0 23.2205 1.4 24.5205 3 24.5205H35C36.7 24.5205 38 23.2205 38 21.5205V3.52051C38 1.82051 36.6 0.520508 35 0.520508Z" fill="black"/>
<path d="M35 1.52051C36.1 1.52051 37 2.42051 37 3.52051V21.5205C37 22.6205 36.1 23.5205 35 23.5205H3C1.9 23.5205 1 22.6205 1 21.5205V3.52051C1 2.42051 1.9 1.52051 3 1.52051H35Z" fill="white"/>
<path d="M18.0932 12.4962V15.6962H17.0752V7.79625H19.7662C20.0886 7.79079 20.409 7.84912 20.7088 7.96788C21.0086 8.08663 21.282 8.26348 21.5132 8.48825C21.7322 8.69264 21.9088 8.9382 22.0329 9.21089C22.157 9.48357 22.2261 9.77804 22.2363 10.0775C22.2466 10.3769 22.1977 10.6754 22.0925 10.9559C21.9872 11.2364 21.8278 11.4934 21.6232 11.7122L21.5132 11.8282C21.0432 12.2752 20.4152 12.5182 19.7662 12.5022L18.0932 12.4962ZM18.0932 8.76425V11.5522H19.7912C20.1682 11.5642 20.5322 11.4172 20.7962 11.1482C20.985 10.9514 21.1118 10.7034 21.1608 10.4351C21.2098 10.1668 21.1788 9.88994 21.0717 9.63908C20.9646 9.38822 20.7861 9.17438 20.5585 9.02417C20.3308 8.87396 20.064 8.794 19.7912 8.79425L18.0932 8.76425ZM24.5772 10.1122C25.2272 10.0822 25.8632 10.3002 26.3552 10.7252C26.8002 11.1552 27.0372 11.7552 27.0052 12.3742V15.7082H26.0362V14.9422H25.9872C25.8134 15.2296 25.5677 15.4666 25.2743 15.6298C24.9809 15.7931 24.6499 15.877 24.3142 15.8732C23.7661 15.891 23.2316 15.7006 22.8182 15.3402C22.6223 15.1805 22.4654 14.9783 22.3592 14.7489C22.253 14.5195 22.2003 14.269 22.2052 14.0162C22.1937 13.7608 22.2433 13.5064 22.3499 13.274C22.4565 13.0416 22.6171 12.8381 22.8182 12.6802C23.3116 12.3254 23.9088 12.1443 24.5162 12.1652C25.0332 12.1452 25.5462 12.2582 26.0062 12.4962V12.2882C26.0096 12.1163 25.9738 11.9458 25.9015 11.7897C25.8293 11.6336 25.7225 11.496 25.5892 11.3872C25.3215 11.1439 24.9709 11.0122 24.6092 11.0192C24.3465 11.0168 24.0875 11.0813 23.8568 11.2068C23.626 11.3322 23.431 11.5145 23.2902 11.7362L22.3952 11.1722C22.6382 10.824 22.9663 10.5438 23.3483 10.3583C23.7302 10.1728 24.1533 10.0881 24.5772 10.1122ZM23.2902 14.0402C23.2878 14.1698 23.3173 14.2979 23.376 14.4133C23.4348 14.5288 23.5211 14.628 23.6272 14.7022C23.8502 14.8782 24.1272 14.9712 24.4122 14.9652C24.8412 14.9642 25.2522 14.7952 25.5582 14.4932C25.8632 14.2072 26.0362 13.8082 26.0362 13.3902C25.6512 13.1166 25.1835 12.9844 24.7122 13.0162C24.3463 13.0018 23.9854 13.1049 23.6822 13.3102C23.5621 13.3906 23.4636 13.4991 23.3953 13.6264C23.3269 13.7537 23.2908 13.8958 23.2902 14.0402ZM32.5762 10.2902L29.1862 18.0802H28.1382L29.4192 15.3522L27.1952 10.2902H28.2982L29.9102 14.1752L31.4792 10.2902H32.5762Z" fill="#5F6368"/>
<path d="M13.986 11.8048C13.986 11.4968 13.962 11.1888 13.913 10.8848H9.62305V12.6318H12.074C12.0241 12.9094 11.9187 13.1741 11.7641 13.41C11.6094 13.646 11.4087 13.8482 11.174 14.0048V15.1388H12.638C13.0832 14.7081 13.4331 14.1888 13.6653 13.6146C13.8975 13.0404 14.0067 12.4238 13.986 11.8048Z" fill="#4285F4"/>
<path d="M9.62903 16.2415C10.7353 16.2718 11.8117 15.8795 12.639 15.1445L11.173 14.0045C10.8208 14.2303 10.4217 14.3729 10.006 14.4213C9.59043 14.4697 9.16924 14.4227 8.77451 14.2838C8.37978 14.145 8.02191 13.918 7.72812 13.62C7.43432 13.3221 7.21233 12.9611 7.07903 12.5645H5.57703V13.7345C5.95288 14.4875 6.53107 15.1209 7.24678 15.5637C7.96249 16.0066 8.78741 16.2412 9.62903 16.2415Z" fill="#34A853"/>
<path d="M7.07893 12.57C6.88872 12.0073 6.88872 11.3977 7.07893 10.835V9.66504H5.57693C5.25672 10.2965 5.08984 10.9945 5.08984 11.7025C5.08984 12.4105 5.25672 13.1086 5.57693 13.74L7.07893 12.57Z" fill="#FBBC04"/>
<path d="M9.62903 8.9607C10.276 8.94888 10.9015 9.1933 11.369 9.6407L12.669 8.3477C11.8401 7.56971 10.7407 7.14535 9.60403 7.1647C8.76739 7.16889 7.94827 7.4047 7.23746 7.84598C6.52665 8.28725 5.95194 8.91676 5.57703 9.6647L7.07903 10.8357C7.25465 10.2958 7.59512 9.8245 8.05253 9.48817C8.50995 9.15183 9.0613 8.96736 9.62903 8.9607Z" fill="#EA4335"/>
</svg>
