<svg width="23" height="23" viewBox="0 0 23 23" fill="none" xmlns="http://www.w3.org/2000/svg">
<path fill-rule="evenodd" clip-rule="evenodd" d="M11.5 0.780273C8.56713 0.780273 8.19925 0.792648 7.04725 0.845523C5.8975 0.897273 5.11225 1.08065 4.426 1.34727C3.70553 1.61839 3.05286 2.04339 2.5135 2.59265C1.96387 3.13192 1.53848 3.78459 1.267 4.50515C1.00038 5.19252 0.817001 5.9789 0.765251 7.12752C0.711251 8.27952 0.700001 8.64627 0.700001 11.5803C0.700001 14.5131 0.712376 14.881 0.765251 16.033C0.817001 17.1828 1.00038 17.968 1.267 18.6543C1.53815 19.3747 1.96315 20.0274 2.51238 20.5668C3.11313 21.1686 3.71613 21.5376 4.42488 21.8133C5.11225 22.0799 5.8975 22.2633 7.04613 22.315C8.19925 22.3679 8.56713 22.3803 11.5 22.3803C14.4329 22.3803 14.8008 22.3679 15.9528 22.315C17.1025 22.2633 17.8878 22.0799 18.574 21.8133C19.2945 21.5421 19.9471 21.1171 20.4865 20.5679C21.0361 20.0286 21.4615 19.376 21.733 18.6554C21.9996 17.968 22.183 17.1816 22.2348 16.0341C22.2876 14.881 22.3 14.5131 22.3 11.5803C22.3 8.6474 22.2876 8.27952 22.2348 7.12752C22.1819 5.97777 21.9996 5.19252 21.733 4.50627C21.4619 3.78581 21.0369 3.13315 20.4876 2.59377C19.9484 2.04411 19.2957 1.61872 18.5751 1.34727C17.8878 1.08065 17.1014 0.897273 15.9528 0.845523C14.8008 0.791523 14.434 0.780273 11.5 0.780273ZM11.5 2.72652C14.3834 2.72652 14.7254 2.73777 15.865 2.78952C16.9169 2.83677 17.4884 3.0134 17.8698 3.16077C18.3738 3.35652 18.7338 3.59052 19.1118 3.96852C19.4898 4.34652 19.7238 4.70652 19.9195 5.21052C20.0669 5.59077 20.2424 6.1634 20.2908 7.2164C20.3425 8.3549 20.3538 8.6969 20.3538 11.5803C20.3538 14.4636 20.3425 14.8056 20.2908 15.9453C20.2424 16.9971 20.0669 17.5698 19.9195 17.95C19.7461 18.4193 19.4697 18.8437 19.1106 19.192C18.7625 19.5506 18.3385 19.8266 17.8698 19.9998C17.4884 20.1471 16.9169 20.3238 15.8639 20.371C14.7254 20.4228 14.3834 20.434 11.4989 20.434C8.6155 20.434 8.27463 20.4228 7.13613 20.371C6.08313 20.3238 5.5105 20.1471 5.13025 19.9998C4.66109 19.8267 4.23669 19.5507 3.88825 19.192C3.52957 18.8436 3.25355 18.4192 3.0805 17.95C2.93313 17.5698 2.7565 16.9971 2.70925 15.9441C2.65638 14.8056 2.64625 14.4636 2.64625 11.5803C2.64625 8.6969 2.6575 8.3549 2.70925 7.21527C2.7565 6.1634 2.93313 5.5919 3.0805 5.21052C3.27625 4.70652 3.51025 4.34652 3.88825 3.96852C4.23669 3.60984 4.66109 3.33382 5.13025 3.16077C5.5105 3.0134 6.08313 2.83677 7.13613 2.78952C8.27463 2.73777 8.61663 2.72652 11.5 2.72652ZM11.5 15.1803C10.5452 15.1803 9.62955 14.801 8.95442 14.1259C8.27928 13.4507 7.9 12.5351 7.9 11.5803C7.9 10.6255 8.27928 9.70982 8.95442 9.03469C9.62955 8.35956 10.5452 7.98027 11.5 7.98027C12.4548 7.98027 13.3705 8.35956 14.0456 9.03469C14.7207 9.70982 15.1 10.6255 15.1 11.5803C15.1 12.5351 14.7207 13.4507 14.0456 14.1259C13.3705 14.801 12.4548 15.1803 11.5 15.1803ZM11.5 6.03402C10.7717 6.03402 10.0504 6.17748 9.37754 6.45621C8.70464 6.73493 8.09323 7.14347 7.57821 7.65848C7.06319 8.1735 6.65466 8.78491 6.37593 9.45782C6.09721 10.1307 5.95375 10.8519 5.95375 11.5803C5.95375 12.3086 6.09721 13.0298 6.37593 13.7027C6.65466 14.3756 7.06319 14.987 7.57821 15.5021C8.09323 16.0171 8.70464 16.4256 9.37754 16.7043C10.0504 16.9831 10.7717 17.1265 11.5 17.1265C12.971 17.1265 14.3817 16.5422 15.4218 15.5021C16.4619 14.4619 17.0463 13.0512 17.0463 11.5803C17.0463 10.1093 16.4619 8.69861 15.4218 7.65848C14.3817 6.61836 12.971 6.03402 11.5 6.03402ZM18.5605 5.81577C18.5605 6.15949 18.424 6.48914 18.1809 6.73218C17.9379 6.97523 17.6082 7.11177 17.2645 7.11177C16.9208 7.11177 16.5911 6.97523 16.3481 6.73218C16.105 6.48914 15.9685 6.15949 15.9685 5.81577C15.9685 5.47205 16.105 5.14241 16.3481 4.89936C16.5911 4.65632 16.9208 4.51977 17.2645 4.51977C17.6082 4.51977 17.9379 4.65632 18.1809 4.89936C18.424 5.14241 18.5605 5.47205 18.5605 5.81577Z" fill="white"/>
</svg>
