<svg width="38" height="25" viewBox="0 0 38 25" fill="none" xmlns="http://www.w3.org/2000/svg">
<path d="M34.3874 0.520508H3.61312C3.48493 0.520508 3.35651 0.520508 3.22854 0.521187C3.1205 0.522093 3.01269 0.523226 2.90466 0.52617C2.66934 0.532512 2.43197 0.546554 2.1996 0.588228C1.96655 0.628156 1.74075 0.702582 1.52964 0.809056C1.10523 1.02492 0.76027 1.36988 0.544407 1.79429C0.437744 2.00548 0.363309 2.23146 0.32358 2.4647C0.281453 2.6973 0.267637 2.93444 0.261295 3.16953C0.258535 3.27747 0.256874 3.38544 0.256312 3.49341C0.255859 3.62115 0.255859 3.74935 0.255859 3.87777V21.163C0.255859 21.2914 0.255859 21.4194 0.256312 21.5478C0.256992 21.6556 0.258351 21.7637 0.261295 21.8717C0.267637 22.1063 0.281679 22.3437 0.32358 22.5761C0.363227 22.8093 0.437586 23.0353 0.544181 23.2465C0.651352 23.4574 0.791243 23.6501 0.958658 23.8173C1.12579 23.9847 1.31843 24.1246 1.52941 24.2317C1.7439 24.3411 1.96359 24.4107 2.19982 24.453C2.43197 24.4945 2.66934 24.5085 2.90466 24.5148C3.01269 24.5173 3.1205 24.5187 3.22854 24.5194C3.35651 24.5203 3.48493 24.5203 3.61312 24.5203H34.3874C34.5154 24.5203 34.6438 24.5203 34.7718 24.5194C34.8796 24.5189 34.9874 24.5173 35.0959 24.5148C35.3308 24.5085 35.5681 24.4945 35.801 24.453C36.0341 24.413 36.2599 24.3385 36.4709 24.2317C36.8951 24.0156 37.24 23.6707 37.4561 23.2465C37.5655 23.032 37.6348 22.8123 37.6767 22.5761C37.7189 22.3437 37.7325 22.1063 37.7388 21.8717C37.7417 21.7637 37.7433 21.6556 37.7438 21.5478C37.7447 21.4194 37.7447 21.2914 37.7447 21.163V3.87799C37.7447 3.74957 37.7447 3.62138 37.7438 3.49319C37.7433 3.38529 37.7417 3.2774 37.7388 3.16953C37.7325 2.93444 37.7189 2.6973 37.6767 2.4647C37.6373 2.23142 37.5629 2.00541 37.4561 1.79429C37.2402 1.36996 36.8952 1.02502 36.4709 0.809056C36.2598 0.702692 36.034 0.628344 35.801 0.588455C35.5681 0.546554 35.3308 0.532738 35.0959 0.526397C34.9879 0.523653 34.8798 0.521992 34.7718 0.521414C34.6438 0.520508 34.5154 0.520508 34.3874 0.520508Z" fill="black"/>
<path d="M34.3871 1.32031L34.7658 1.32099C34.8682 1.32167 34.9708 1.3228 35.0739 1.32552C35.2535 1.3305 35.4632 1.34024 35.6589 1.37535C35.8288 1.40593 35.9714 1.45236 36.1082 1.52211C36.382 1.66131 36.6044 1.88395 36.7433 2.15787C36.8126 2.29377 36.8588 2.43555 36.8894 2.607C36.9243 2.80042 36.934 3.01083 36.9388 3.19135C36.9417 3.29327 36.9431 3.39519 36.9433 3.49937C36.9444 3.62553 36.9444 3.75145 36.9444 3.87784V21.1631C36.9444 21.2895 36.9444 21.4154 36.9435 21.544C36.9431 21.646 36.9417 21.7479 36.939 21.8498C36.934 22.0301 36.9243 22.2405 36.889 22.4362C36.8633 22.5919 36.814 22.7427 36.7429 22.8835C36.6037 23.1575 36.3809 23.3802 36.1069 23.5193C35.971 23.5886 35.8288 23.635 35.6605 23.6654C35.4609 23.7009 35.2421 23.7107 35.0775 23.7152C34.974 23.7174 34.8709 23.719 34.7652 23.7195C34.6395 23.7204 34.5131 23.7204 34.3871 23.7204H3.60786C3.48329 23.7204 3.35872 23.7204 3.23188 23.7195C3.12995 23.719 3.02803 23.7177 2.92612 23.7154C2.75761 23.7109 2.53882 23.7009 2.34087 23.6656C2.18436 23.6395 2.03271 23.5899 1.89106 23.5184C1.7552 23.4493 1.63119 23.3591 1.5237 23.2511C1.41587 23.1435 1.32581 23.0194 1.25689 22.8835C1.18572 22.7419 1.13639 22.5903 1.11058 22.4339C1.07525 22.2385 1.06528 22.029 1.06075 21.85C1.05819 21.7478 1.05668 21.6455 1.05622 21.5431L1.05554 21.2426V3.79856L1.05599 3.49847C1.05646 3.396 1.05797 3.29355 1.06052 3.19112C1.06551 3.01174 1.07525 2.80224 1.11081 2.60519C1.13666 2.44911 1.18599 2.29784 1.25712 2.15651C1.32597 2.02107 1.41566 1.89741 1.52438 1.78892C1.63213 1.681 1.75627 1.5908 1.8922 1.52166C2.03349 1.45067 2.18467 1.40135 2.34065 1.37535C2.53656 1.34024 2.74652 1.3305 2.92635 1.32552C3.02872 1.3228 3.13132 1.32167 3.23302 1.32099L3.61284 1.32031H34.3871Z" fill="white"/>
<path d="M10.1098 8.62222C10.4278 8.22473 10.6434 7.6909 10.5865 7.14551C10.1213 7.16861 9.55376 7.4524 9.22489 7.85034C8.92978 8.19098 8.66863 8.74702 8.73658 9.26953C9.25886 9.31483 9.7807 9.00861 10.1098 8.62222Z" fill="black"/>
<path d="M10.5806 9.37121C9.82187 9.32591 9.17727 9.80154 8.81512 9.80154C8.45273 9.80154 7.89806 9.39386 7.29809 9.40495C6.51738 9.41628 5.79306 9.85793 5.39671 10.5601C4.58179 11.9643 5.18154 14.048 5.97425 15.1918C6.35906 15.758 6.82291 16.3808 7.43398 16.3584C8.01153 16.3358 8.23779 15.9847 8.93946 15.9847C9.6409 15.9847 9.84474 16.3584 10.456 16.3471C11.0898 16.3358 11.4861 15.7809 11.8709 15.2146C12.3126 14.5691 12.4931 13.9463 12.5044 13.9123C12.4931 13.901 11.2823 13.4365 11.2709 12.0436C11.2596 10.8771 12.2218 10.3222 12.267 10.288C11.7237 9.48445 10.8748 9.39385 10.5804 9.37121" fill="black"/>
<path d="M18.1422 7.79297C19.7906 7.79297 20.9386 8.92927 20.9386 10.5836C20.9386 12.2437 19.767 13.3859 18.101 13.3859H16.2759V16.2886H14.9573V7.79297H18.1422ZM16.2759 12.2791H17.7889C18.9372 12.2791 19.5904 11.661 19.5904 10.5894C19.5904 9.51814 18.9369 8.90571 17.7947 8.90571H16.2759V12.2791Z" fill="black"/>
<path d="M21.2657 14.528C21.2657 13.4389 22.0958 12.8149 23.6265 12.7207L25.269 12.6205V12.1495C25.269 11.4609 24.8157 11.084 24.0092 11.084C23.3438 11.084 22.8609 11.4254 22.7613 11.9492H21.5717C21.6073 10.8485 22.6433 10.0479 24.0446 10.0479C25.5516 10.0479 26.5348 10.8367 26.5348 12.0613V16.2883H25.3163V15.2698H25.2868C24.9394 15.935 24.1739 16.3529 23.3438 16.3529C22.1194 16.3529 21.2657 15.6231 21.2657 14.528ZM25.269 13.9806V13.5036L23.8031 13.5979C22.9787 13.6509 22.5493 13.9568 22.5493 14.4925C22.5493 15.0107 22.9966 15.3464 23.6971 15.3464C24.5918 15.3464 25.269 14.7751 25.269 13.9806Z" fill="black"/>
<path d="M27.6556 18.5603V17.542C27.7381 17.5536 27.9381 17.5653 28.0441 17.5653C28.6268 17.5653 28.9566 17.3185 29.1568 16.6823L29.2746 16.3056L27.0432 10.124H28.4207L29.9751 15.1399H30.0046L31.5587 10.124H32.9011L30.5873 16.6175C30.0573 18.1071 29.451 18.5959 28.1677 18.5959C28.0676 18.5959 27.7437 18.5841 27.6556 18.5603Z" fill="black"/>
</svg>
