<svg width="38" height="25" viewBox="0 0 38 25" fill="none" xmlns="http://www.w3.org/2000/svg">
<path opacity="0.07" d="M35 0.520508H3C1.3 0.520508 0 1.82051 0 3.52051V21.5205C0 23.2205 1.4 24.5205 3 24.5205H35C36.7 24.5205 38 23.2205 38 21.5205V3.52051C38 1.82051 36.6 0.520508 35 0.520508Z" fill="black"/>
<path d="M35 1.52051C36.1 1.52051 37 2.42051 37 3.52051V21.5205C37 22.6205 36.1 23.5205 35 23.5205H3C1.9 23.5205 1 22.6205 1 21.5205V3.52051C1 2.42051 1.9 1.52051 3 1.52051H35Z" fill="white"/>
<path d="M15 19.5205C18.866 19.5205 22 16.3865 22 12.5205C22 8.65451 18.866 5.52051 15 5.52051C11.134 5.52051 8 8.65451 8 12.5205C8 16.3865 11.134 19.5205 15 19.5205Z" fill="#EB001B"/>
<path d="M23 19.5205C26.866 19.5205 30 16.3865 30 12.5205C30 8.65451 26.866 5.52051 23 5.52051C19.134 5.52051 16 8.65451 16 12.5205C16 16.3865 19.134 19.5205 23 19.5205Z" fill="#F79E1B"/>
<path d="M22 12.5203C22 10.1203 20.8 8.02031 19 6.82031C17.2 8.12031 16 10.2203 16 12.5203C16 14.8203 17.2 17.0203 19 18.2203C20.8 17.0203 22 14.9203 22 12.5203Z" fill="#FF5F00"/>
</svg>
