<svg width="38" height="25" viewBox="0 0 38 25" fill="none" xmlns="http://www.w3.org/2000/svg">
<path opacity="0.07" d="M35 0.520508H3C1.3 0.520508 0 1.82051 0 3.52051V21.5205C0 23.2205 1.4 24.5205 3 24.5205H35C36.7 24.5205 38 23.2205 38 21.5205V3.52051C38 1.82051 36.6 0.520508 35 0.520508Z" fill="black"/>
<path d="M35 1.52051C36.1 1.52051 37 2.42051 37 3.52051V21.5205C37 22.6205 36.1 23.5205 35 23.5205H3C1.9 23.5205 1 22.6205 1 21.5205V3.52051C1 2.42051 1.9 1.52051 3 1.52051H35Z" fill="white"/>
<path d="M23.9 8.82051C24.1 7.82051 23.9 7.12051 23.3 6.52051C22.7 5.82051 21.6 5.52051 20.2 5.52051H16.1C15.8 5.52051 15.6 5.72051 15.5 6.02051L14 16.1205C14 16.3205 14.1 16.5205 14.3 16.5205H17L17.4 13.1205L19.2 10.9205L23.9 8.82051Z" fill="#003087"/>
<path d="M23.8996 8.82031L23.6996 9.02031C23.1996 11.8203 21.4996 12.8203 19.0996 12.8203H17.9996C17.6996 12.8203 17.4996 13.0203 17.3996 13.3203L16.7996 17.2203L16.5996 18.2203C16.5996 18.4203 16.6996 18.6203 16.8996 18.6203H18.9996C19.2996 18.6203 19.4996 18.4203 19.4996 18.2203V18.1203L19.8996 15.7203V15.6203C19.8996 15.4203 20.1996 15.2203 20.3996 15.2203H20.6996C22.7996 15.2203 24.3996 14.4203 24.7996 12.0203C24.9996 11.0203 24.8996 10.2203 24.3996 9.62031C24.2996 9.12031 24.0996 8.92031 23.8996 8.82031Z" fill="#3086C8"/>
<path d="M23.3004 8.62031C23.2004 8.52031 23.1004 8.52031 23.0004 8.52031C22.9004 8.52031 22.8004 8.52031 22.7004 8.42031C22.4004 8.32031 22.0004 8.32031 21.6004 8.32031H18.6004C18.5004 8.32031 18.4004 8.32031 18.4004 8.42031C18.2004 8.52031 18.1004 8.62031 18.1004 8.82031L17.4004 13.2203V13.3203C17.4004 13.0203 17.7004 12.8203 18.0004 12.8203H19.3004C21.8004 12.8203 23.4004 11.8203 23.9004 9.02031V8.82031C23.8004 8.72031 23.6004 8.62031 23.4004 8.62031H23.3004Z" fill="#012169"/>
</svg>
