<svg width="38" height="25" viewBox="0 0 38 25" fill="none" xmlns="http://www.w3.org/2000/svg">
<path opacity="0.07" d="M35 0.520508H3C1.3 0.520508 0 1.82051 0 3.52051V21.5205C0 23.2205 1.4 24.5205 3 24.5205H35C36.7 24.5205 38 23.2205 38 21.5205V3.52051C38 1.82051 36.6 0.520508 35 0.520508Z" fill="black"/>
<path d="M35.889 0.520508C37.05 0.520508 38 1.50251 38 2.70251V22.3385C38 23.5385 37.05 24.5205 35.889 24.5205H2.11C0.95 24.5205 0 23.5385 0 22.3385V2.70251C0 1.50251 0.95 0.520508 2.111 0.520508H35.889Z" fill="#5A31F4"/>
<path d="M9.35001 11.8885C8.33301 11.6655 7.88001 11.5785 7.88001 11.1835C7.88001 10.8115 8.18601 10.6255 8.80001 10.6255C9.34001 10.6255 9.73401 10.8635 10.025 11.3295C10.0353 11.3468 10.0517 11.3595 10.0711 11.3651C10.0904 11.3707 10.1111 11.3687 10.129 11.3595L11.275 10.7755C11.2848 10.7703 11.2934 10.7632 11.3003 10.7545C11.3072 10.7459 11.3123 10.736 11.3153 10.7253C11.3183 10.7147 11.3191 10.7035 11.3177 10.6926C11.3163 10.6816 11.3126 10.671 11.307 10.6615C10.832 9.83051 9.95401 9.37551 8.79701 9.37551C7.27701 9.37551 6.33301 10.1305 6.33301 11.3315C6.33301 12.6065 7.48301 12.9285 8.50301 13.1515C9.52301 13.3735 9.97701 13.4615 9.97701 13.8565C9.97701 14.2525 9.64501 14.4385 8.98401 14.4385C8.37201 14.4385 7.91901 14.1565 7.64401 13.6085C7.63438 13.5898 7.61774 13.5756 7.59771 13.569C7.57767 13.5624 7.55586 13.5641 7.53701 13.5735L6.39401 14.1435C6.37461 14.1535 6.35995 14.1708 6.35321 14.1916C6.34647 14.2124 6.34819 14.235 6.35801 14.2545C6.81201 15.1745 7.74201 15.6915 8.98501 15.6915C10.568 15.6915 11.524 14.9495 11.524 13.7115C11.524 12.4735 10.369 12.1135 9.35101 11.8915L9.35001 11.8885ZM15.49 9.37551C14.84 9.37551 14.266 9.60751 13.854 10.0215C13.8484 10.0275 13.841 10.0316 13.8329 10.0332C13.8249 10.0349 13.8165 10.034 13.809 10.0307C13.8014 10.0274 13.7951 10.0219 13.7908 10.0149C13.7865 10.0079 13.7845 9.99972 13.785 9.99151V7.35151C13.7851 7.34092 13.7832 7.33041 13.7792 7.32059C13.7752 7.31076 13.7694 7.30183 13.7619 7.29429C13.7545 7.28676 13.7456 7.28077 13.7359 7.27669C13.7261 7.27261 13.7156 7.27051 13.705 7.27051H12.27C12.2593 7.2705 12.2488 7.27264 12.2389 7.27678C12.2291 7.28093 12.2202 7.287 12.2127 7.29464C12.2053 7.30228 12.1994 7.31134 12.1955 7.32128C12.1916 7.33122 12.1897 7.34183 12.19 7.35251V15.5465C12.1897 15.5572 12.1916 15.5678 12.1955 15.5777C12.1994 15.5877 12.2053 15.5967 12.2127 15.6044C12.2202 15.612 12.2291 15.6181 12.2389 15.6222C12.2488 15.6264 12.2593 15.6285 12.27 15.6285H13.703C13.7138 15.6286 13.7244 15.6266 13.7344 15.6225C13.7444 15.6184 13.7534 15.6124 13.7609 15.6047C13.7685 15.5971 13.7744 15.588 13.7784 15.578C13.7824 15.568 13.7843 15.5573 13.784 15.5465V11.9525C13.784 11.2575 14.312 10.7255 15.023 10.7255C15.733 10.7255 16.249 11.2465 16.249 11.9525V15.5465C16.2487 15.5573 16.2506 15.568 16.2546 15.578C16.2586 15.588 16.2645 15.5971 16.2721 15.6047C16.2796 15.6124 16.2887 15.6184 16.2986 15.6225C16.3086 15.6266 16.3192 15.6286 16.33 15.6285H17.763C17.7738 15.6286 17.7844 15.6266 17.7944 15.6225C17.8044 15.6184 17.8134 15.6124 17.8209 15.6047C17.8285 15.5971 17.8344 15.588 17.8384 15.578C17.8424 15.568 17.8443 15.5573 17.844 15.5465V11.9525C17.844 10.4425 16.864 9.37551 15.49 9.37551ZM20.753 9.14051C19.975 9.14051 19.246 9.38051 18.723 9.72851C18.7055 9.73983 18.6929 9.75741 18.6879 9.77766C18.6829 9.79791 18.6858 9.81931 18.696 9.83751L19.328 10.9255C19.3332 10.9348 19.3402 10.9429 19.3485 10.9494C19.3569 10.9559 19.3665 10.9608 19.3767 10.9635C19.387 10.9663 19.3977 10.9671 19.4082 10.9657C19.4187 10.9643 19.4288 10.9608 19.438 10.9555C19.8348 10.7134 20.2912 10.5866 20.756 10.5895C22.006 10.5895 22.926 11.4805 22.926 12.6575C22.926 13.6605 22.19 14.4025 21.257 14.4025C20.497 14.4025 19.969 13.9565 19.969 13.3255C19.969 12.9645 20.121 12.6685 20.517 12.4595C20.5268 12.4545 20.5355 12.4475 20.5425 12.439C20.5495 12.4305 20.5547 12.4206 20.5577 12.41C20.5607 12.3994 20.5615 12.3883 20.56 12.3773C20.5585 12.3664 20.5548 12.3559 20.549 12.3465L19.953 11.3285C19.9435 11.3119 19.9284 11.2993 19.9105 11.2929C19.8925 11.2865 19.8728 11.2867 19.855 11.2935C19.056 11.5925 18.496 12.3115 18.496 13.2775C18.496 14.7375 19.648 15.8275 21.256 15.8275C23.133 15.8275 24.483 14.5145 24.483 12.6325C24.483 10.6145 22.913 9.14051 20.753 9.14051ZM28.675 9.36351C27.951 9.36351 27.302 9.63351 26.83 10.1095C26.804 10.1365 26.761 10.1165 26.761 10.0805V9.50851C26.7613 9.49783 26.7594 9.48722 26.7555 9.47728C26.7516 9.46734 26.7458 9.45828 26.7383 9.45064C26.7308 9.443 26.7219 9.43693 26.7121 9.43278C26.7023 9.42864 26.6917 9.4265 26.681 9.42651H25.284C25.2733 9.4265 25.2628 9.42864 25.2529 9.43278C25.2431 9.43693 25.2342 9.443 25.2267 9.45064C25.2193 9.45828 25.2134 9.46734 25.2095 9.47728C25.2056 9.48722 25.2037 9.49783 25.204 9.50851V17.6905C25.2039 17.7011 25.2058 17.7116 25.2098 17.7214C25.2138 17.7313 25.2196 17.7402 25.2271 17.7477C25.2345 17.7553 25.2434 17.7612 25.2532 17.7653C25.2629 17.7694 25.2734 17.7715 25.284 17.7715H26.717C26.7277 17.7716 26.7383 17.7696 26.7482 17.7656C26.7581 17.7616 26.767 17.7556 26.7746 17.7481C26.7821 17.7405 26.7881 17.7316 26.7921 17.7217C26.7961 17.7118 26.7981 17.7012 26.798 17.6905V15.0075C26.798 14.9715 26.841 14.9535 26.867 14.9775C27.3569 15.4352 28.0046 15.686 28.675 15.6775C30.357 15.6775 31.668 14.3045 31.668 12.5205C31.668 10.7365 30.355 9.36351 28.675 9.36351ZM28.404 14.2925C27.448 14.2925 26.723 13.5245 26.723 12.5095C26.723 11.4945 27.446 10.7265 28.404 10.7265C29.362 10.7265 30.084 11.4815 30.084 12.5095C30.084 13.5365 29.372 14.2925 28.404 14.2925Z" fill="white"/>
</svg>
