<svg width="22" height="23" viewBox="0 0 22 23" fill="none" xmlns="http://www.w3.org/2000/svg">
<path d="M9.18228 18.7041C9.18805 18.827 9.16881 18.9499 9.12574 19.0652C9.08266 19.1805 9.01663 19.2859 8.93166 19.3749C8.84668 19.464 8.74452 19.5349 8.63135 19.5833C8.51819 19.6317 8.39638 19.6567 8.27328 19.6567C8.15019 19.6567 8.02837 19.6317 7.91521 19.5833C7.80205 19.5349 7.69988 19.464 7.61491 19.3749C7.52993 19.2859 7.46391 19.1805 7.42083 19.0652C7.37775 18.9499 7.35851 18.827 7.36428 18.7041C7.37525 18.4704 7.4758 18.2498 7.64507 18.0883C7.81434 17.9268 8.03932 17.8367 8.27328 17.8367C8.50724 17.8367 8.73222 17.9268 8.90149 18.0883C9.07076 18.2498 9.17132 18.4704 9.18228 18.7041ZM16.4543 18.7041C16.4601 18.827 16.4408 18.9499 16.3977 19.0652C16.3547 19.1805 16.2886 19.2859 16.2037 19.3749C16.1187 19.464 16.0165 19.5349 15.9034 19.5833C15.7902 19.6317 15.6684 19.6567 15.5453 19.6567C15.4222 19.6567 15.3004 19.6317 15.1872 19.5833C15.074 19.5349 14.9719 19.464 14.8869 19.3749C14.8019 19.2859 14.7359 19.1805 14.6928 19.0652C14.6497 18.9499 14.6305 18.827 14.6363 18.7041C14.6441 18.4681 14.7434 18.2444 14.9131 18.0802C15.0828 17.916 15.3097 17.8242 15.5458 17.8242C15.7819 17.8242 16.0088 17.916 16.1785 18.0802C16.3482 18.2444 16.4465 18.4681 16.4543 18.7041Z" fill="black"/>
<path d="M5.336 6.886H21L17.364 15.068H6.909L4.636 3.25H1M9.182 18.704C9.18777 18.827 9.16853 18.9498 9.12545 19.0651C9.08238 19.1804 9.01635 19.2858 8.93137 19.3749C8.8464 19.4639 8.74424 19.5348 8.63107 19.5832C8.51791 19.6317 8.39609 19.6567 8.273 19.6567C8.14991 19.6567 8.02809 19.6317 7.91493 19.5832C7.80176 19.5348 7.6996 19.4639 7.61463 19.3749C7.52965 19.2858 7.46363 19.1804 7.42055 19.0651C7.37747 18.9498 7.35823 18.827 7.364 18.704C7.37497 18.4703 7.47552 18.2498 7.64479 18.0883C7.81406 17.9268 8.03904 17.8366 8.273 17.8366C8.50696 17.8366 8.73194 17.9268 8.90121 18.0883C9.07048 18.2498 9.17103 18.4703 9.182 18.704ZM16.454 18.704C16.4598 18.827 16.4405 18.9498 16.3975 19.0651C16.3544 19.1804 16.2883 19.2858 16.2034 19.3749C16.1184 19.4639 16.0162 19.5348 15.9031 19.5832C15.7899 19.6317 15.6681 19.6567 15.545 19.6567C15.4219 19.6567 15.3001 19.6317 15.1869 19.5832C15.0738 19.5348 14.9716 19.4639 14.8866 19.3749C14.8016 19.2858 14.7356 19.1804 14.6925 19.0651C14.6495 18.9498 14.6302 18.827 14.636 18.704C14.6438 18.468 14.7431 18.2443 14.9128 18.0801C15.0825 17.9159 15.3094 17.8242 15.5455 17.8242C15.7816 17.8242 16.0085 17.9159 16.1782 18.0801C16.3479 18.2443 16.4462 18.468 16.454 18.704Z" stroke="black" stroke-width="2" stroke-linecap="round" stroke-linejoin="round"/>
</svg>
