<svg width="16" height="16" viewBox="0 0 16 16" fill="none" xmlns="http://www.w3.org/2000/svg">
<g clip-path="url(#clip0_24_711)">
<path d="M16 6.28125C16 6.05208 15.8229 5.90625 15.4688 5.84375L10.625 5.125L8.46875 0.75C8.34375 0.5 8.1875 0.375 8 0.375C7.8125 0.375 7.65625 0.5 7.53125 0.75L5.375 5.125L0.53125 5.84375C0.177083 5.90625 0 6.05208 0 6.28125C0 6.42708 0.0833333 6.58333 0.25 6.75L3.75 10.1562L2.90625 14.9688C2.90625 15.0521 2.90625 15.1146 2.90625 15.1562C2.90625 15.2812 2.9375 15.3906 3 15.4844C3.0625 15.5781 3.16667 15.625 3.3125 15.625C3.41667 15.625 3.54167 15.5833 3.6875 15.5L8 13.25L12.3125 15.5C12.4583 15.5833 12.5833 15.625 12.6875 15.625C12.8333 15.625 12.9375 15.5781 13 15.4844C13.0625 15.3906 13.0938 15.2812 13.0938 15.1562C13.0938 15.0729 13.0938 15.0104 13.0938 14.9688L12.25 10.1562L15.75 6.75C15.9167 6.58333 16 6.42708 16 6.28125Z" fill="#FFD700"/>
</g>
<defs>
<clipPath id="clip0_24_711">
<rect width="16" height="16" fill="white" transform="matrix(1 0 0 -1 0 16)"/>
</clipPath>
</defs>
</svg>
