<svg width="19" height="23" viewBox="0 0 19 23" fill="none" xmlns="http://www.w3.org/2000/svg">
<path d="M18.53 9.51927C17.4872 9.61602 16.4377 9.4269 15.4943 8.97222C14.5509 8.51755 13.7491 7.81448 13.175 6.93852V15.8181C13.1748 17.1159 12.7898 18.3845 12.0686 19.4634C11.3475 20.5424 10.3226 21.3833 9.12361 21.8799C7.92458 22.3764 6.60525 22.5062 5.33243 22.253C4.0596 21.9998 2.89045 21.3748 1.97279 20.4571C1.05512 19.5395 0.430165 18.3703 0.176928 17.0975C-0.0763084 15.8247 0.0535487 14.5054 0.550081 13.3063C1.04661 12.1073 1.88752 11.0824 2.96649 10.3613C4.04545 9.64014 5.31401 9.25512 6.61178 9.2549C6.74903 9.2549 6.88291 9.26727 7.01791 9.27627V12.5095C6.88291 12.4938 6.75128 12.469 6.61291 12.469C5.72467 12.469 4.8728 12.8219 4.24472 13.45C3.61664 14.078 3.26378 14.9299 3.26378 15.8181C3.26378 16.7064 3.61664 17.5583 4.24472 18.1863C4.8728 18.8144 5.72467 19.1673 6.61291 19.1673C8.46241 19.1673 10.0959 17.7104 10.0959 15.8598L10.1297 0.780273H13.2234C13.3647 2.12438 13.9739 3.37606 14.9445 4.31649C15.9152 5.25691 17.1855 5.82623 18.5334 5.9249V9.51927" fill="white"/>
</svg>
