<svg width="38" height="25" viewBox="0 0 38 25" fill="none" xmlns="http://www.w3.org/2000/svg">
<path d="M17.7 0.520508V24.5205H10.5C9.2 24.5205 8.4 23.5205 8.7 22.2205L13.1 2.82051C13.4 1.52051 15 0.520508 16.3 0.520508H17.7ZM30.3 0.520508C29 0.520508 27.4 1.52051 27.1 2.82051L22.6 22.2205C22.3 23.5205 23.1 24.5205 24.4 24.5205H19.5V0.520508H30.3Z" fill="#005B9A"/>
<path d="M16.2996 0.520508C14.9996 0.520508 13.3996 1.62051 13.0996 2.82051L8.69961 22.2205C8.39961 23.5205 9.19961 24.5205 10.4996 24.5205H1.59961C0.799609 24.5205 0.0996094 23.9205 0.0996094 23.1205V2.12051C0.0996094 1.32051 0.799609 0.520508 1.59961 0.520508H16.2996Z" fill="#E9292D"/>
<path d="M30.2997 0.520508C28.9997 0.520508 27.3997 1.62051 27.0997 2.82051L22.6997 22.2205C22.3997 23.5205 23.1997 24.5205 24.4997 24.5205H9.99969H10.4997C9.19969 24.5205 8.3997 23.5205 8.6997 22.2205L13.0997 2.82051C13.3997 1.52051 14.9997 0.520508 16.2997 0.520508H30.2997Z" fill="#0E73B9"/>
<path d="M38 2.12051V23.1205C38 23.9205 37.4 24.5205 36.5 24.5205H24.4C23.1 24.5205 22.3 23.4205 22.6 22.2205L27.1 2.82051C27.4 1.52051 29 0.520508 30.3 0.520508H36.5C37.4 0.520508 38 1.22051 38 2.12051Z" fill="#059DA4"/>
<path d="M14.8779 14.1659H15.0179C15.1579 14.1659 15.2979 14.0959 15.2979 14.0259L15.7179 13.3959H16.9079L16.6979 13.7459H18.0979L17.8879 14.3759H16.2079C15.9979 14.6559 15.7879 14.7959 15.5079 14.7959H14.6679L14.8779 14.1659ZM14.6679 15.0759H17.6779L17.4679 15.7759H16.2779L16.0679 16.4759H17.2579L17.0479 17.1759H15.8579L15.5779 18.2259C15.5079 18.3659 15.5779 18.5059 15.8579 18.4359H16.8379L16.6279 19.1359H14.7379C14.3879 19.1359 14.2479 18.9259 14.3879 18.5059L14.7379 17.1759H13.9679L14.1779 16.4759H14.9479L15.1579 15.7759H14.4579L14.6679 15.0759ZM19.4979 13.3259V13.7459C19.4979 13.7459 20.0579 13.3259 20.6179 13.3259H22.5779L21.8079 15.9859C21.7379 16.2659 21.4579 16.4759 21.0379 16.4759H18.7979L18.3079 18.3659C18.3079 18.4359 18.3079 18.5059 18.4479 18.5059H18.8679L18.7279 19.0659H17.6079C17.1879 19.0659 17.0479 18.9259 17.1179 18.7159L18.5879 13.3259H19.4979ZM21.1779 14.0959H19.4279L19.2179 14.7959C19.2179 14.7959 19.4979 14.5859 19.9879 14.5859H21.0379L21.1779 14.0959ZM20.5479 15.7759C20.6879 15.7759 20.7579 15.7759 20.7579 15.6359L20.8979 15.2859H19.1479L19.0079 15.8459L20.5479 15.7759ZM19.3579 16.6159H20.3379V17.0359H20.6179C20.7579 17.0359 20.8279 16.9659 20.8279 16.8959L20.8979 16.6159H21.7379L21.5979 17.1059C21.5279 17.4559 21.2479 17.5959 20.8279 17.6659H20.2679V18.4359C20.2679 18.5759 20.3379 18.6459 20.6179 18.6459H21.1079L20.9679 19.2059H19.7779C19.4279 19.2059 19.2879 19.0659 19.2879 18.7159L19.3579 16.6159ZM23.5579 14.1659L23.7679 13.3259H24.9579L24.8879 13.6059C24.8879 13.6059 25.4479 13.3259 25.9379 13.3259H27.4079L27.1979 14.1659H26.9879L25.8679 18.0159H26.0779L25.8679 18.7859H25.6579L25.5879 19.1359H24.3979L24.4679 18.7859H22.2979L22.5079 18.0159H22.7179L23.8379 14.1659H23.5579ZM24.8179 14.1659L24.5379 15.2159C24.5379 15.2159 25.0279 15.0059 25.4479 14.9359C25.5179 14.5859 25.6579 14.1659 25.6579 14.1659H24.8179ZM24.3279 15.7059L24.0479 16.8259C24.0479 16.8259 24.6079 16.5459 25.0279 16.5459C25.1679 16.1259 25.2379 15.7759 25.2379 15.7759L24.3279 15.7059ZM24.5379 18.0159L24.7479 17.2459H23.9079L23.6979 18.0159H24.5379ZM27.4079 13.3259H28.5279L28.5979 13.7459C28.5979 13.8159 28.6679 13.8859 28.8079 13.8859H29.0179L28.8079 14.5859H28.0379C27.7579 14.5859 27.5479 14.5159 27.5479 14.2359L27.4079 13.3259ZM27.0579 14.7959H30.6279L30.4179 15.5659H29.2279L29.0179 16.2659H30.1379L29.9279 17.0359H28.6679L28.3879 17.4559H29.0179L29.1579 18.2959C29.1579 18.3659 29.2279 18.4359 29.3679 18.4359H29.5779L29.3679 19.1359H28.6679C28.3179 19.1359 28.1079 19.0659 28.1079 18.7859L27.9679 18.0159L27.4079 18.8559C27.2679 19.0659 27.0579 19.2059 26.7779 19.2059H25.7279L25.9379 18.5059H26.2879C26.4279 18.5059 26.4979 18.4359 26.6379 18.2959L27.4779 17.0359H26.4279L26.6379 16.2659H27.8279L28.0379 15.5659H26.8479L27.0579 14.7959ZM7.31793 9.75594C7.17793 10.4559 6.89793 10.9459 6.40793 11.2959C5.91793 11.6459 5.28793 11.8559 4.51793 11.8559C3.81793 11.8559 3.25793 11.6459 2.97793 11.2959C2.76793 11.0159 2.62793 10.7359 2.62793 10.3159C2.62793 10.1759 2.62793 9.96594 2.69793 9.75594L3.53793 5.83594H4.72793L3.95793 9.75594V10.0359C3.95793 10.2459 4.02793 10.3859 4.09793 10.5259C4.23793 10.7359 4.44793 10.8059 4.79793 10.8059C5.14793 10.8059 5.49793 10.7359 5.70793 10.5259C5.91793 10.3159 6.12793 10.1059 6.19793 9.75594L6.96793 5.83594H8.15793L7.31793 9.75594ZM8.43793 8.21594H9.27793L9.20793 8.70594L9.34793 8.56594C9.62793 8.28594 9.97793 8.14594 10.3979 8.14594C10.7479 8.14594 11.0279 8.28594 11.1679 8.49594C11.3079 8.70594 11.3779 8.98594 11.3079 9.40594L10.8179 11.7859H9.90793L10.3279 9.61594C10.3979 9.33594 10.3979 9.12594 10.3279 9.05594C10.2579 8.91594 10.1179 8.91594 9.97793 8.91594C9.76793 8.91594 9.55793 8.98594 9.41793 9.12594C9.27793 9.26594 9.13793 9.47594 9.13793 9.75594L8.71793 11.7859H7.80793L8.43793 8.21594ZM18.2379 8.21594H19.0779L19.0079 8.70594L19.1479 8.56594C19.4279 8.28594 19.7779 8.14594 20.1979 8.14594C20.5479 8.14594 20.8279 8.28594 20.9679 8.49594C21.1079 8.70594 21.1779 8.98594 21.1079 9.40594L20.6179 11.7859H19.7079L20.1279 9.54594C20.1979 9.33594 20.1279 9.12594 20.0579 9.05594C19.9879 8.91594 19.8479 8.91594 19.7079 8.91594C19.4979 8.91594 19.2879 8.98594 19.1479 9.12594C19.0079 9.26594 18.8679 9.47594 18.8679 9.75594L18.4479 11.7859H17.5379L18.2379 8.21594ZM12.4279 8.21594H13.4079L12.6379 11.7159H11.6579L12.4279 8.21594ZM12.7779 6.88594H13.7579L13.5479 7.72594H12.5679L12.7779 6.88594ZM14.1779 11.4359C13.9679 11.2259 13.8279 10.8759 13.8279 10.4559V10.2459C13.8279 10.1759 13.8279 10.0359 13.8979 9.96594C14.0379 9.40594 14.2479 8.91594 14.5979 8.63594C14.9479 8.28594 15.4379 8.14594 15.9279 8.14594C16.3479 8.14594 16.6979 8.28594 16.9779 8.49594C17.1879 8.70594 17.3279 9.05594 17.3279 9.47594V9.68594C17.3279 9.75594 17.3279 9.89594 17.2579 9.96594C17.1179 10.5259 16.9079 10.9459 16.5579 11.2959C16.2079 11.6459 15.7179 11.7859 15.2279 11.7859C14.8779 11.7859 14.5279 11.6459 14.1779 11.4359ZM16.0679 10.7359C16.2079 10.5259 16.3479 10.2459 16.4179 9.89594V9.54594C16.4179 9.33594 16.3479 9.19594 16.2779 9.05594C16.2164 8.98751 16.1406 8.93328 16.056 8.89702C15.9714 8.86076 15.8799 8.84333 15.7879 8.84594C15.5079 8.84594 15.2979 8.91594 15.1579 9.12594C15.0179 9.33594 14.8779 9.61594 14.8079 9.96594V10.2459C14.8079 10.4559 14.8779 10.5959 14.9479 10.7359C15.0879 10.8759 15.2279 10.9459 15.4379 10.9459C15.7179 11.0159 15.8579 10.9459 16.0679 10.7359ZM22.5779 6.04594H25.0979C25.5879 6.04594 25.9379 6.18594 26.2179 6.39594C26.4979 6.60594 26.5679 6.95594 26.5679 7.30594V7.58594C26.5679 7.65594 26.5679 7.79594 26.4979 7.86594C26.4279 8.35594 26.1479 8.84594 25.7979 9.12594C25.3779 9.47594 24.9579 9.61594 24.3979 9.61594H22.9979L22.5779 11.6459H21.3879L22.5779 6.04594ZM23.1379 8.63594H24.2579C24.5379 8.63594 24.7479 8.56594 24.9579 8.42594C25.0979 8.28594 25.2379 8.07594 25.3079 7.79594V7.51594C25.3079 7.30594 25.2379 7.16594 25.0979 7.09594C24.9579 7.02594 24.7479 6.95594 24.3979 6.95594H23.4879L23.1379 8.63594ZM31.8179 12.3459C31.4679 13.1159 31.1179 13.6059 30.9079 13.8159C30.6979 14.0259 30.2779 14.5159 29.2979 14.5159L29.3679 13.8859C30.2079 13.6059 30.6279 12.4859 30.9079 11.9259L30.6279 8.14594H31.8179L31.8879 10.5259L32.7979 8.21594H33.8479L31.8179 12.3459ZM28.8779 8.49594L28.4579 8.77594C28.0379 8.42594 27.6179 8.21594 26.9179 8.56594C25.9379 9.05594 25.0279 12.6959 27.8279 11.5059L27.9679 11.7159H29.0879L29.7879 8.42594L28.8779 8.49594ZM28.3179 10.3159C28.1079 10.8759 27.7579 11.1559 27.4079 11.0859C27.1279 10.9459 27.0579 10.4559 27.1979 9.89594C27.4079 9.33594 27.7579 9.05594 28.1079 9.12594C28.3879 9.26594 28.4579 9.75594 28.3179 10.3159Z" fill="white"/>
</svg>
