<svg width="38" height="25" viewBox="0 0 38 25" fill="none" xmlns="http://www.w3.org/2000/svg">
<path opacity="0.07" d="M35 0.520508H3C1.3 0.520508 0 1.82051 0 3.52051V21.5205C0 23.2205 1.4 24.5205 3 24.5205H35C36.7 24.5205 38 23.2205 38 21.5205V3.52051C38 1.82051 36.6 0.520508 35 0.520508Z" fill="black"/>
<path d="M35 1.52051C36.1 1.52051 37 2.42051 37 3.52051V21.5205C37 22.6205 36.1 23.5205 35 23.5205H3C1.9 23.5205 1 22.6205 1 21.5205V3.52051C1 2.42051 1.9 1.52051 3 1.52051H35Z" fill="white"/>
<path d="M28.3 10.6205H28C27.6 11.6205 27.3 12.1205 27 13.6205H28.9C28.6 12.1205 28.6 11.4205 28.3 10.6205ZM31.2 16.5205H29.5C29.4 16.5205 29.4 16.5205 29.3 16.4205L29.1 15.5205L29 15.3205H26.6C26.5 15.3205 26.4 15.3205 26.4 15.5205L26.1 16.4205C26.1 16.5205 26 16.5205 26 16.5205H23.9L24.1 16.0205L27 9.22051C27 8.72051 27.3 8.52051 27.8 8.52051H29.3C29.4 8.52051 29.5 8.52051 29.5 8.72051L30.9 15.2205C31 15.6205 31.1 15.9205 31.1 16.3205C31.2 16.4205 31.2 16.4205 31.2 16.5205ZM17.8 16.2205L18.2 14.4205C18.3 14.4205 18.4 14.5205 18.4 14.5205C19.1 14.8205 19.8 15.0205 20.5 14.9205C20.7 14.9205 21 14.8205 21.2 14.7205C21.7 14.5205 21.7 14.0205 21.3 13.6205C21.1 13.4205 20.8 13.3205 20.5 13.1205C20.1 12.9205 19.7 12.7205 19.4 12.4205C18.2 11.4205 18.6 10.0205 19.3 9.32051C19.9 8.92051 20.2 8.52051 21 8.52051C22.2 8.52051 23.5 8.52051 24.1 8.72051H24.2C24.1 9.32051 24 9.82051 23.8 10.4205C23.3 10.2205 22.8 10.0205 22.3 10.0205C22 10.0205 21.7 10.0205 21.4 10.1205C21.2 10.1205 21.1 10.2205 21 10.3205C20.8 10.5205 20.8 10.8205 21 11.0205L21.5 11.4205C21.9 11.6205 22.3 11.8205 22.6 12.0205C23.1 12.3205 23.6 12.8205 23.7 13.4205C23.9 14.3205 23.6 15.1205 22.8 15.7205C22.3 16.1205 22.1 16.3205 21.4 16.3205C20 16.3205 18.9 16.4205 18 16.1205C17.9 16.3205 17.9 16.3205 17.8 16.2205ZM14.3 16.5205C14.4 15.8205 14.4 15.8205 14.5 15.5205C15 13.3205 15.5 11.0205 15.9 8.82051C16 8.62051 16 8.52051 16.2 8.52051H18C17.8 9.72051 17.6 10.6205 17.3 11.7205C17 13.2205 16.7 14.7205 16.3 16.2205C16.3 16.4205 16.2 16.4205 16 16.4205M5 8.72051C5 8.62051 5.2 8.52051 5.3 8.52051H8.7C9.2 8.52051 9.6 8.82051 9.7 9.32051L10.6 13.7205C10.6 13.8205 10.6 13.8205 10.7 13.9205C10.7 13.8205 10.8 13.8205 10.8 13.8205L12.9 8.72051C12.8 8.62051 12.9 8.52051 13 8.52051H15.1C15.1 8.62051 15.1 8.62051 15 8.72051L11.9 16.0205C11.8 16.2205 11.8 16.3205 11.7 16.4205C11.6 16.5205 11.4 16.4205 11.2 16.4205H9.7C9.6 16.4205 9.5 16.4205 9.5 16.2205L7.9 10.0205C7.7 9.82051 7.4 9.52051 7 9.42051C6.4 9.12051 5.3 8.92051 5.1 8.92051L5 8.72051Z" fill="#142688"/>
</svg>
