<svg width="25" height="18" viewBox="0 0 25 18" fill="none" xmlns="http://www.w3.org/2000/svg">
<path fill-rule="evenodd" clip-rule="evenodd" d="M21.9954 0.978844C23.0406 1.25334 23.8629 2.06222 24.1431 3.08934C24.6504 4.95009 24.6504 8.83359 24.6504 8.83359C24.6504 8.83359 24.6504 12.7171 24.1431 14.5778C24.0013 15.0871 23.7281 15.5501 23.351 15.9205C22.9739 16.2909 22.506 16.5557 21.9943 16.6883C20.0998 17.1867 12.5004 17.1867 12.5004 17.1867C12.5004 17.1867 4.90219 17.1867 3.00656 16.6883C2.49492 16.5556 2.02712 16.2908 1.65002 15.9204C1.27291 15.55 0.999724 15.087 0.857813 14.5778C0.351563 12.7171 0.351562 8.83359 0.351562 8.83359C0.351562 8.83359 0.351563 4.95009 0.857813 3.08934C0.999621 2.58011 1.27277 2.11709 1.64989 1.74668C2.02702 1.37628 2.49487 1.11148 3.00656 0.978844C4.90219 0.480469 12.5016 0.480469 12.5016 0.480469C12.5016 0.480469 20.0998 0.480469 21.9943 0.978844H21.9954ZM16.3659 8.83359L10.0164 12.3605V5.30784L16.3682 8.83359H16.3659Z" fill="white"/>
</svg>
